<?xml version="1.0" encoding="utf-8"?>
<!-- Generator: Adobe Illustrator 23.1.0, SVG Export Plug-In . SVG Version: 6.00 Build 0)  -->
<svg xmlns="http://www.w3.org/2000/svg" xmlns:xlink="http://www.w3.org/1999/xlink" x="0px" y="0px"
	 viewBox="0 0 1366 768">
<path class="small" d="M564,230c5.84-5.64-13.58-10.69,2-8c13.34,2.31-7.48-5.07,2-4c21.11,2.38,7,23.84,7,27c0,1-1,10,2,10
	c2.24,0,2-3,3-2s5,0,3,2c-2.55,2.55-0.18-1.23,4,0c2.35,0.69,2.34-1.66,4,0c2,2,3,3,5,1s2-6,5-7c3.98-1.33,3.11,1,8,1
	c5,0,6.78,0.78,7,0c0.05-0.2,9,2,6,1c-4.93-0.29,1.2,1,6,1c2,0,1-2,3-3c4.56-2.28,1.59-3,3-3c2,0,1-2,2-4s0.15-6.39,3-9
	c4.41-4.04,0.5-1.58,4-4c3.29-2.28,5.46,1.46,9,5c3,3,7.5,5.49,9,10c1,3-0.35,3.7-2,7c-2,4-13.78,2.59-14,6c-0.37,5.84,15,2,16,7
	c1.22,6.1,3.23,14.47,5,18c1,2,3.26,5.72,10,5c4.6-0.49,0.94,2.82,2,6c1.4,4.2,6.23-0.28,5,8c-0.72,4.86,6.7,10.15,11,13
	c5.7,3.77,13.03-3.09,15-4c6.24-2.89,5.62-3.76,8-3c3.32,1.05,8.43-1.94,5,4c-3.22,5.58-9.92,5.25-13,11c-2.74,5.11,2.17,14.17,4,16
	c2,2,3-1,5-2s4-2,6-1s0.53,3.74-2,5c-2,1-2,4-4,7c-2.12,3.18-1.08,3.75-1,7c0.13,4.92,5.61,5.86,8,13c2.31,6.89,2.81,12.36,3,18
	c0.26,7.72-2.26,8.8-2,16c0.15,4.12,4.83,6.62,7,17c2.64,12.59-1.18,15.21,6,17c4,1,0.81-0.14,9,1c5.56,0.78,4.5-2.5,4,2
	c-0.24,2.13,3.61,0.59-2,5c-5.3,4.16-4.26,3.86-5,6c-1.14,3.31-2,5-3,10c-3.52,17.58,2.61,12.07-2,9c-3-2-2.62,3.3-8,3
	c-3.53-0.2-1.24,4.19-4,5c-1.97,0.58-0.87,2.95-2,6c-1.46,3.96-1.87,4.56-2,8c-0.31,8.25-0.75,1.33-1,6c-0.48,8.99,1.02-1.69,0,6
	c-1.15,8.73-1,0-2,4c-0.92,3.69,1,5-1,7c-2.1,2.1-1.24,3.83-3,5c-2.37,1.58,0,3-1,7c-0.54,2.17,0,8,1,12c1.48,5.9-2.03,23.74-5,27
	c-2.34,2.56,2.55-5.36-2-9c-5-4,1-7,0-11s0-6-1-9c-1.3-3.91,0-7-1-8c-2-2-2-6-3-7c-2-2,0.27-2.19-1-6c-1-3-1-2-3-3
	c-1.79-0.89-0.52-2.54-1-5c-0.7-3.58-4.61-4.39-7-2c-1,1-4,6-7,7c-5.89,1.96-4-6-5-8c-0.26-0.52,8.29-1.06,5-8
	c-3.91-8.24,10.89,2.72,9-9c-1.81-11.23-5.26-1.65-3-7c2.1-4.97-8,3.92-8-3c0-1-6,0-6-2c0-7.36-0.38-5.36,5.5-5.5
	c3.69-0.09,3.84,1.89,8,2c7.19,0.19,12.66-5.58,14-7c0.95-1,1.89-2.17,6-10c3.74-7.13,4.33-8.79,7-14c6.5-12.69,8.32-13.28,8-17
	c-0.45-5.16-4.02-4.92-7-13c-2.4-6.52-0.46-7.7-3-15c-1.78-5.11-2.75-4.57-6-12c-2.66-6.08-2.27-7.04-5-13
	c-3.06-6.69-4.94-10.67-8-11c-2.76-0.3-3.73,2.68-8,3c-2.54,0.19-5.19-0.65-7-2c-3.81-2.84-2.77-7.11-5-15
	c-1.57-5.58-3.53-12.49-9-16c-3.77-2.42-7.73-2.27-15-2c-11.01,0.41-13.98,3.59-19,1c-3.61-1.86-3.43-4.22-8-6
	c-4.44-1.73-6.02-0.06-9-2c-2.86-1.86-2-3.79-6-9c-1.1-1.43-2.98-3.84-6-6c-0.87-0.62-4.09-2.84-9-4c-9.77-2.32-20,1-20,1
	s-6.17-3.59-10-8c-4.47-5.14-2.6-7.75-8-16c-2.51-3.82-3.76-5.73-6-7c-5.56-3.14-0.98-2.58-9.5-3.5c-2.7-0.29-1-4-2-5
	c-6.24-6.24-2.29-3.15-2-5c0.45-2.87-3.65-4.56,0-6c4.21-1.67,1.24,4.23,8,4c5.85-0.2,7.14,1.1,7-3c-0.18-5.4,4.52-4.59,3-5
	c-8.78-2.38-1.94-6.83,1-8c5-2,12.55,2.11,6,2c-6.2-0.11,22.54,0.93,8-1c-9.75-1.29,0.54-2.01-1-5
	C569.14,231.39,560.64,233.25,564,230z"/>
<path class="large" d="M439,203c5.84-5.64,15.42-3.69,31-1c13.34,2.31,28.52,4.93,38,6c21.11,2.38,41.55,4.68,59-6
	c13.82-8.46,17.66-20.1,28-19c9.66,1.02,14.54,12.04,19,10c5.15-2.36-0.75-17.32,8-25c0.62-0.54,4.82-4.23,9-3
	c2.35,0.69,4.2,2.8,5,5c2.05,5.6-3.85,8.55-5,18c-0.87,7.19,2.06,9.44,0,14c-1.73,3.82-6.11,7.91-11,8
	c-0.46,0.01-1.06-0.02-1.86-0.16c-8.86-1.64-12.37-12.97-18.64-13.34c-4.93-0.29-10.81,6.27-10,11c0.86,5.07,9.27,7.28,12,8
	c9.44,2.48,13.55-1.4,18,2c4.48,3.42,2.11,8.73,7,12c3.49,2.33,9.15,2.61,12,0c4.41-4.04-0.5-12.58,3-15c3.29-2.28,11.73,2.47,17,8
	c6.12,6.43,6.31,12.18,11,13c4.22,0.74,6.62-3.47,10-2c2.86,1.25,4.22,5.59,4,9c-0.37,5.84-5.22,6.61-7,13
	c-1.67,5.99,0.3,13.62,4,15c3.23,1.2,5.26-3.28,12-4c4.6-0.49,10.94,0.82,12,4c1.4,4.2-7.77,7.72-9,16c-0.72,4.86,0.7,11.15,5,14
	c5.7,3.77,14.03-0.09,16-1c6.24-2.89,7.62-6.76,10-6c3.32,1.05,5.43,10.06,2,16c-3.22,5.58-8.92,4.25-12,10
	c-2.74,5.11-1.44,12.14,1,13c1.93,0.68,3.55-2.89,10-7c3.74-2.39,9.15-5.84,12-4c2.82,1.82,3.07,8.79,0,13
	c-3.61,4.95-9.35,2.73-13,8c-2.18,3.14-2.08,6.75-2,10c0.13,4.92,1.61,6.86,4,14c2.31,6.89,3.81,11.36,4,17c0.26,7.72-2.26,7.8-2,15
	c0.15,4.12,2.1,9.13,6,19c4.5,11.39,5.75,12.41,7,13c4.61,2.18,7.81-2.14,16-1c5.56,0.78,11.5,1.5,11,6c-0.24,2.13-5.39,1.59-11,6
	c-5.3,4.16-7.26,9.86-8,12c-1.14,3.31-1.34,5.94-1,16c0.61,17.92,1.64,21.13-1,26c-0.2,0.36-4.62,8.3-10,8c-3.53-0.2-5.24-3.81-8-3
	c-1.97,0.58-2.87,2.95-4,6c-1.46,3.96-1.87,7.56-2,11c-0.31,8.25,1.25,9.33,1,14c-0.48,8.99-5.98,9.31-7,17
	c-1.15,8.73,5.64,10.64,9,26c0.19,0.85,3.38,15.9-1,18c-2.67,1.28-6.24-3.17-8-2c-2.37,1.58,1.91,11.07,5,20
	c7.07,20.4,2.38,21.73,9,40c5.63,15.54,11.97,22.74,9,26c-2.34,2.56-9.32,1.48-14-2c-8.94-6.65-4.53-18.43-10-41
	c-4.04-16.67-7.35-13.99-11-30c-5.09-22.31-0.66-36.3-7-39c-6-2.55-12.69,8.8-22,6c-5.17-1.55-9.88-7.08-9-11
	c1.52-6.76,18.48-3.52,24-14c2.73-5.2,1.48-11.54,1-14c-0.7-3.58-1.77-9.01-5-10c-3.77-1.16-6.48,4.99-16,11
	c-5.25,3.32-12.23,7.73-20,6c-0.57-0.13-8.71-2.06-12-9c-3.91-8.24,3.89-13.28,2-25c-1.81-11.23-10.26-14.65-8-20
	c2.1-4.97,11.14-6.13,18-7c9.53-1.22,10.58,1.23,16-1c6.81-2.8,8.12-7.86,14-8c3.69-0.09,3.84,1.89,8,2c7.19,0.19,12.66-5.58,14-7
	c0.95-1,1.89-2.17,6-10c3.74-7.13,4.33-8.79,7-14c6.5-12.69,8.32-13.28,8-17c-0.45-5.16-4.02-4.92-7-13c-2.4-6.52-0.46-7.7-3-15
	c-1.78-5.11-2.75-4.57-6-12c-2.66-6.08-2.27-7.04-5-13c-3.06-6.69-4.94-10.67-8-11c-2.76-0.3-3.73,2.68-8,3
	c-2.54,0.19-5.19-0.65-7-2c-3.81-2.84-2.77-7.11-5-15c-1.57-5.58-3.53-12.49-9-16c-3.77-2.42-7.73-2.27-15-2
	c-11.01,0.41-13.98,3.59-19,1c-3.61-1.86-3.43-4.22-8-6c-4.44-1.73-6.02-0.06-9-2c-2.86-1.86-2-3.79-6-9c-1.1-1.43-2.98-3.84-6-6
	c-0.87-0.62-4.09-2.84-9-4c-9.77-2.32-20,1-20,1s-6.17-3.59-10-8c-4.47-5.14-2.6-7.75-8-16c-2.51-3.82-3.76-5.73-6-7
	c-5.56-3.14-9.48,0.92-18,0c-2.7-0.29-11.48-1.7-17-9c-5.32-7.04-4.29-15.15-4-17c0.45-2.87,1.35-8.56,5-10
	c4.21-1.67,7.24,4.23,14,4c5.85-0.2,12.14-4.9,12-9c-0.18-5.4-11.48-8.59-13-9c-8.78-2.38-13.41,0.26-28,2
	c-10.5,1.25-18.45,1.11-25,1c-6.2-0.11-13.46-1.07-28-3c-9.75-1.29-13.46-2.01-15-5C433.64,211.89,435.64,206.25,439,203z"/>

</svg>
